<svg xmlns="http://www.w3.org/2000/svg" viewBox="0 0 64 64" fill="none">
  <defs>
    <linearGradient id="bilimGrad" x1="0" y1="0" x2="64" y2="64" gradientUnits="userSpaceOnUse">
      <stop offset="0%" stop-color="#D98A2B"/>
      <stop offset="100%" stop-color="#D85A30"/>
    </linearGradient>
  </defs>
  <rect width="64" height="64" rx="16" fill="url(#bilimGrad)"/>
  <rect x="3" y="3" width="58" height="58" rx="13.5" stroke="#FFFDF8" stroke-opacity="0.34" stroke-width="1.5"/>
  <path d="M21 16H35C41.2 16 45 19.3 45 24.4C45 28 42.9 30.6 39.6 31.5C43.5 32.3 46 35.2 46 39.4C46 44.8 41.8 48 35.2 48H21V16ZM27.6 29.2H34.2C36.9 29.2 38.6 27.7 38.6 25.3C38.6 22.9 36.9 21.6 34.2 21.6H27.6V29.2ZM27.6 42.4H34.8C37.8 42.4 39.5 40.9 39.5 38.4C39.5 35.8 37.7 34.4 34.6 34.4H27.6V42.4Z" fill="#1C1306"/>
</svg>
